<svg id="visual" viewBox="0 0 960 540" width="960" height="540" xmlns="http://www.w3.org/2000/svg" xmlns:xlink="http://www.w3.org/1999/xlink" version="1.1"><g fill="#8859ff"><circle r="27" cx="575" cy="250"></circle><circle r="17" cx="323" cy="420"></circle><circle r="16" cx="121" cy="253"></circle><circle r="19" cx="313" cy="362"></circle><circle r="22" cx="40" cy="508"></circle><circle r="16" cx="412" cy="399"></circle><circle r="21" cx="231" cy="410"></circle><circle r="17" cx="420" cy="459"></circle><circle r="20" cx="723" cy="264"></circle><circle r="22" cx="404" cy="93"></circle><circle r="24" cx="724" cy="161"></circle><circle r="17" cx="188" cy="183"></circle><circle r="23" cx="135" cy="348"></circle><circle r="19" cx="2" cy="2"></circle><circle r="25" cx="277" cy="227"></circle><circle r="24" cx="876" cy="230"></circle><circle r="20" cx="897" cy="35"></circle><circle r="22" cx="63" cy="319"></circle><circle r="20" cx="812" cy="414"></circle><circle r="24" cx="328" cy="262"></circle><circle r="24" cx="847" cy="286"></circle><circle r="18" cx="728" cy="392"></circle><circle r="24" cx="203" cy="58"></circle><circle r="18" cx="327" cy="173"></circle><circle r="17" cx="877" cy="432"></circle><circle r="23" cx="366" cy="526"></circle><circle r="24" cx="263" cy="172"></circle><circle r="22" cx="750" cy="538"></circle><circle r="19" cx="148" cy="47"></circle><circle r="17" cx="482" cy="86"></circle><circle r="24" cx="835" cy="40"></circle><circle r="22" cx="359" cy="54"></circle><circle r="18" cx="928" cy="90"></circle><circle r="17" cx="746" cy="101"></circle><circle r="18" cx="501" cy="439"></circle><circle r="23" cx="7" cy="445"></circle><circle r="17" cx="746" cy="39"></circle><circle r="25" cx="954" cy="251"></circle><circle r="19" cx="585" cy="45"></circle><circle r="25" cx="103" cy="6"></circle><circle r="16" cx="435" cy="138"></circle><circle r="25" cx="577" cy="394"></circle><circle r="16" cx="60" cy="443"></circle><circle r="21" cx="884" cy="378"></circle><circle r="24" cx="526" cy="507"></circle><circle r="20" cx="630" cy="228"></circle><circle r="24" cx="805" cy="135"></circle><circle r="18" cx="270" cy="100"></circle><circle r="18" cx="49" cy="152"></circle><circle r="23" cx="768" cy="464"></circle><circle r="22" cx="151" cy="505"></circle><circle r="20" cx="603" cy="152"></circle><circle r="20" cx="538" cy="161"></circle><circle r="20" cx="95" cy="402"></circle><circle r="25" cx="468" cy="12"></circle><circle r="18" cx="644" cy="18"></circle><circle r="19" cx="679" cy="534"></circle><circle r="17" cx="156" cy="430"></circle><circle r="22" cx="643" cy="361"></circle><circle r="18" cx="746" cy="335"></circle><circle r="20" cx="953" cy="435"></circle><circle r="20" cx="111" cy="115"></circle><circle r="22" cx="506" cy="379"></circle><circle r="22" cx="821" cy="194"></circle><circle r="18" cx="489" cy="246"></circle><circle r="23" cx="843" cy="523"></circle><circle r="19" cx="11" cy="275"></circle><circle r="24" cx="416" cy="220"></circle><circle r="25" cx="55" cy="91"></circle><circle r="19" cx="272" cy="302"></circle><circle r="23" cx="817" cy="345"></circle><circle r="22" cx="131" cy="175"></circle><circle r="23" cx="492" cy="311"></circle><circle r="24" cx="239" cy="346"></circle><circle r="23" cx="368" cy="329"></circle><circle r="21" cx="25" cy="359"></circle><circle r="17" cx="924" cy="336"></circle><circle r="23" cx="622" cy="85"></circle><circle r="16" cx="929" cy="198"></circle><circle r="18" cx="60" cy="222"></circle><circle r="22" cx="363" cy="215"></circle><circle r="17" cx="682" cy="118"></circle><circle r="17" cx="262" cy="34"></circle><circle r="24" cx="321" cy="488"></circle><circle r="24" cx="466" cy="499"></circle><circle r="25" cx="182" cy="274"></circle><circle r="22" cx="250" cy="496"></circle><circle r="20" cx="954" cy="531"></circle><circle r="24" cx="627" cy="309"></circle><circle r="22" cx="192" cy="472"></circle><circle r="18" cx="200" cy="530"></circle><circle r="21" cx="587" cy="526"></circle><circle r="25" cx="421" cy="536"></circle><circle r="18" cx="388" cy="4"></circle><circle r="18" cx="882" cy="176"></circle><circle r="19" cx="555" cy="305"></circle><circle r="18" cx="216" cy="5"></circle><circle r="16" cx="656" cy="440"></circle><circle r="19" cx="200" cy="111"></circle><circle r="24" cx="534" cy="82"></circle><circle r="18" cx="7" cy="69"></circle><circle r="23" cx="402" cy="281"></circle><circle r="19" cx="954" cy="34"></circle><circle r="18" cx="524" cy="22"></circle><circle r="23" cx="3" cy="220"></circle><circle r="19" cx="59" cy="38"></circle><circle r="21" cx="688" cy="55"></circle><circle r="21" cx="340" cy="111"></circle><circle r="25" cx="611" cy="471"></circle><circle r="17" cx="765" cy="229"></circle><circle r="21" cx="958" cy="380"></circle><circle r="17" cx="944" cy="147"></circle><circle r="25" cx="456" cy="351"></circle><circle r="22" cx="463" cy="190"></circle><circle r="17" cx="670" cy="171"></circle><circle r="25" cx="883" cy="123"></circle><circle r="16" cx="683" cy="323"></circle><circle r="16" cx="778" cy="282"></circle><circle r="19" cx="694" cy="479"></circle><circle r="17" cx="102" cy="538"></circle><circle r="22" cx="900" cy="518"></circle><circle r="24" cx="384" cy="157"></circle><circle r="25" cx="103" cy="479"></circle><circle r="22" cx="370" cy="442"></circle><circle r="25" cx="227" cy="246"></circle><circle r="21" cx="334" cy="6"></circle><circle r="18" cx="693" cy="220"></circle><circle r="23" cx="297" cy="536"></circle><circle r="20" cx="560" cy="458"></circle><circle r="24" cx="799" cy="80"></circle><circle r="20" cx="793" cy="4"></circle><circle r="21" cx="491" cy="138"></circle><circle r="25" cx="665" cy="267"></circle><circle r="20" cx="908" cy="285"></circle><circle r="22" cx="183" cy="373"></circle><circle r="20" cx="273" cy="443"></circle></g></svg>