<svg id="visual" viewBox="0 0 960 540" width="960" height="540" xmlns="http://www.w3.org/2000/svg" xmlns:xlink="http://www.w3.org/1999/xlink" version="1.1"><path d="M0 44L26.7 74.7C53.3 105.3 106.7 166.7 160 180.2C213.3 193.7 266.7 159.3 320 146.7C373.3 134 426.7 143 480 149.3C533.3 155.7 586.7 159.3 640 167.5C693.3 175.7 746.7 188.3 800 203.7C853.3 219 906.7 237 933.3 246L960 255L960 0L933.3 0C906.7 0 853.3 0 800 0C746.7 0 693.3 0 640 0C586.7 0 533.3 0 480 0C426.7 0 373.3 0 320 0C266.7 0 213.3 0 160 0C106.7 0 53.3 0 26.7 0L0 0Z" fill="#8859ff"></path><path d="M0 276L26.7 274.3C53.3 272.7 106.7 269.3 160 264C213.3 258.7 266.7 251.3 320 257.5C373.3 263.7 426.7 283.3 480 291.5C533.3 299.7 586.7 296.3 640 285.7C693.3 275 746.7 257 800 260.5C853.3 264 906.7 289 933.3 301.5L960 314L960 253L933.3 244C906.7 235 853.3 217 800 201.7C746.7 186.3 693.3 173.7 640 165.5C586.7 157.3 533.3 153.7 480 147.3C426.7 141 373.3 132 320 144.7C266.7 157.3 213.3 191.7 160 178.2C106.7 164.7 53.3 103.3 26.7 72.7L0 42Z" fill="#4e2aca"></path><path d="M0 314L26.7 312.2C53.3 310.3 106.7 306.7 160 306.7C213.3 306.7 266.7 310.3 320 316.7C373.3 323 426.7 332 480 331.2C533.3 330.3 586.7 319.7 640 314.3C693.3 309 746.7 309 800 316.2C853.3 323.3 906.7 337.7 933.3 344.8L960 352L960 312L933.3 299.5C906.7 287 853.3 262 800 258.5C746.7 255 693.3 273 640 283.7C586.7 294.3 533.3 297.7 480 289.5C426.7 281.3 373.3 261.7 320 255.5C266.7 249.3 213.3 256.7 160 262C106.7 267.3 53.3 270.7 26.7 272.3L0 274Z" fill="#000097"></path><path d="M0 368L26.7 364.5C53.3 361 106.7 354 160 352.2C213.3 350.3 266.7 353.7 320 355.3C373.3 357 426.7 357 480 351.7C533.3 346.3 586.7 335.7 640 330.3C693.3 325 746.7 325 800 339.3C853.3 353.7 906.7 382.3 933.3 396.7L960 411L960 350L933.3 342.8C906.7 335.7 853.3 321.3 800 314.2C746.7 307 693.3 307 640 312.3C586.7 317.7 533.3 328.3 480 329.2C426.7 330 373.3 321 320 314.7C266.7 308.3 213.3 304.7 160 304.7C106.7 304.7 53.3 308.3 26.7 310.2L0 312Z" fill="#000000"></path><path d="M0 438L26.7 436.3C53.3 434.7 106.7 431.3 160 425.2C213.3 419 266.7 410 320 406.3C373.3 402.7 426.7 404.3 480 396.2C533.3 388 586.7 370 640 368.2C693.3 366.3 746.7 380.7 800 397.8C853.3 415 906.7 435 933.3 445L960 455L960 409L933.3 394.7C906.7 380.3 853.3 351.7 800 337.3C746.7 323 693.3 323 640 328.3C586.7 333.7 533.3 344.3 480 349.7C426.7 355 373.3 355 320 353.3C266.7 351.7 213.3 348.3 160 350.2C106.7 352 53.3 359 26.7 362.5L0 366Z" fill="#000000"></path><path d="M0 455L26.7 455.8C53.3 456.7 106.7 458.3 160 452.8C213.3 447.3 266.7 434.7 320 440C373.3 445.3 426.7 468.7 480 471.3C533.3 474 586.7 456 640 456C693.3 456 746.7 474 800 483C853.3 492 906.7 492 933.3 492L960 492L960 453L933.3 443C906.7 433 853.3 413 800 395.8C746.7 378.7 693.3 364.3 640 366.2C586.7 368 533.3 386 480 394.2C426.7 402.3 373.3 400.7 320 404.3C266.7 408 213.3 417 160 423.2C106.7 429.3 53.3 432.7 26.7 434.3L0 436Z" fill="#000097"></path><path d="M0 471L26.7 473.7C53.3 476.3 106.7 481.7 160 482.5C213.3 483.3 266.7 479.7 320 482.3C373.3 485 426.7 494 480 493.2C533.3 492.3 586.7 481.7 640 481.7C693.3 481.7 746.7 492.3 800 502.2C853.3 512 906.7 521 933.3 525.5L960 530L960 490L933.3 490C906.7 490 853.3 490 800 481C746.7 472 693.3 454 640 454C586.7 454 533.3 472 480 469.3C426.7 466.7 373.3 443.3 320 438C266.7 432.7 213.3 445.3 160 450.8C106.7 456.3 53.3 454.7 26.7 453.8L0 453Z" fill="#4e2aca"></path><path d="M0 541L26.7 541C53.3 541 106.7 541 160 541C213.3 541 266.7 541 320 541C373.3 541 426.7 541 480 541C533.3 541 586.7 541 640 541C693.3 541 746.7 541 800 541C853.3 541 906.7 541 933.3 541L960 541L960 528L933.3 523.5C906.7 519 853.3 510 800 500.2C746.7 490.3 693.3 479.7 640 479.7C586.7 479.7 533.3 490.3 480 491.2C426.7 492 373.3 483 320 480.3C266.7 477.7 213.3 481.3 160 480.5C106.7 479.7 53.3 474.3 26.7 471.7L0 469Z" fill="#8859ff"></path></svg>