<svg id="visual" viewBox="0 0 900 600" width="900" height="600" xmlns="http://www.w3.org/2000/svg" xmlns:xlink="http://www.w3.org/1999/xlink" version="1.1"><path d="M0 19L9.3 20C18.7 21 37.3 23 56.2 30C75 37 94 49 112.8 55C131.7 61 150.3 61 169 64C187.7 67 206.3 73 225 67C243.7 61 262.3 43 281.2 44C300 45 319 65 337.8 72C356.7 79 375.3 73 394 65C412.7 57 431.3 47 450 48C468.7 49 487.3 61 506.2 67C525 73 544 73 562.8 67C581.7 61 600.3 49 619 40C637.7 31 656.3 25 675 22C693.7 19 712.3 19 731.2 29C750 39 769 59 787.8 59C806.7 59 825.3 39 844 38C862.7 37 881.3 55 890.7 64L900 73L900 0L890.7 0C881.3 0 862.7 0 844 0C825.3 0 806.7 0 787.8 0C769 0 750 0 731.2 0C712.3 0 693.7 0 675 0C656.3 0 637.7 0 619 0C600.3 0 581.7 0 562.8 0C544 0 525 0 506.2 0C487.3 0 468.7 0 450 0C431.3 0 412.7 0 394 0C375.3 0 356.7 0 337.8 0C319 0 300 0 281.2 0C262.3 0 243.7 0 225 0C206.3 0 187.7 0 169 0C150.3 0 131.7 0 112.8 0C94 0 75 0 56.2 0C37.3 0 18.7 0 9.3 0L0 0Z" fill="#af8eff"></path><path d="M0 25L9.3 31C18.7 37 37.3 49 56.2 56C75 63 94 65 112.8 69C131.7 73 150.3 79 169 83C187.7 87 206.3 89 225 85C243.7 81 262.3 71 281.2 78C300 85 319 109 337.8 117C356.7 125 375.3 117 394 105C412.7 93 431.3 77 450 73C468.7 69 487.3 77 506.2 85C525 93 544 101 562.8 95C581.7 89 600.3 69 619 58C637.7 47 656.3 45 675 42C693.7 39 712.3 35 731.2 49C750 63 769 95 787.8 98C806.7 101 825.3 75 844 67C862.7 59 881.3 69 890.7 74L900 79L900 71L890.7 62C881.3 53 862.7 35 844 36C825.3 37 806.7 57 787.8 57C769 57 750 37 731.2 27C712.3 17 693.7 17 675 20C656.3 23 637.7 29 619 38C600.3 47 581.7 59 562.8 65C544 71 525 71 506.2 65C487.3 59 468.7 47 450 46C431.3 45 412.7 55 394 63C375.3 71 356.7 77 337.8 70C319 63 300 43 281.2 42C262.3 41 243.7 59 225 65C206.3 71 187.7 65 169 62C150.3 59 131.7 59 112.8 53C94 47 75 35 56.2 28C37.3 21 18.7 19 9.3 18L0 17Z" fill="#a884ff"></path><path d="M0 67L9.3 74C18.7 81 37.3 95 56.2 98C75 101 94 93 112.8 90C131.7 87 150.3 89 169 96C187.7 103 206.3 115 225 118C243.7 121 262.3 115 281.2 119C300 123 319 137 337.8 145C356.7 153 375.3 155 394 147C412.7 139 431.3 121 450 112C468.7 103 487.3 103 506.2 108C525 113 544 123 562.8 116C581.7 109 600.3 85 619 76C637.7 67 656.3 73 675 69C693.7 65 712.3 51 731.2 61C750 71 769 105 787.8 115C806.7 125 825.3 111 844 108C862.7 105 881.3 113 890.7 117L900 121L900 77L890.7 72C881.3 67 862.7 57 844 65C825.3 73 806.7 99 787.8 96C769 93 750 61 731.2 47C712.3 33 693.7 37 675 40C656.3 43 637.7 45 619 56C600.3 67 581.7 87 562.8 93C544 99 525 91 506.2 83C487.3 75 468.7 67 450 71C431.3 75 412.7 91 394 103C375.3 115 356.7 123 337.8 115C319 107 300 83 281.2 76C262.3 69 243.7 79 225 83C206.3 87 187.7 85 169 81C150.3 77 131.7 71 112.8 67C94 63 75 61 56.2 54C37.3 47 18.7 35 9.3 29L0 23Z" fill="#a079ff"></path><path d="M0 109L9.3 115C18.7 121 37.3 133 56.2 136C75 139 94 133 112.8 129C131.7 125 150.3 123 169 125C187.7 127 206.3 133 225 137C243.7 141 262.3 143 281.2 146C300 149 319 153 337.8 159C356.7 165 375.3 173 394 169C412.7 165 431.3 149 450 137C468.7 125 487.3 117 506.2 124C525 131 544 153 562.8 152C581.7 151 600.3 127 619 116C637.7 105 656.3 107 675 103C693.7 99 712.3 89 731.2 98C750 107 769 135 787.8 141C806.7 147 825.3 131 844 129C862.7 127 881.3 139 890.7 145L900 151L900 119L890.7 115C881.3 111 862.7 103 844 106C825.3 109 806.7 123 787.8 113C769 103 750 69 731.2 59C712.3 49 693.7 63 675 67C656.3 71 637.7 65 619 74C600.3 83 581.7 107 562.8 114C544 121 525 111 506.2 106C487.3 101 468.7 101 450 110C431.3 119 412.7 137 394 145C375.3 153 356.7 151 337.8 143C319 135 300 121 281.2 117C262.3 113 243.7 119 225 116C206.3 113 187.7 101 169 94C150.3 87 131.7 85 112.8 88C94 91 75 99 56.2 96C37.3 93 18.7 79 9.3 72L0 65Z" fill="#986fff"></path><path d="M0 217L9.3 231C18.7 245 37.3 273 56.2 274C75 275 94 249 112.8 245C131.7 241 150.3 259 169 252C187.7 245 206.3 213 225 206C243.7 199 262.3 217 281.2 228C300 239 319 243 337.8 242C356.7 241 375.3 235 394 231C412.7 227 431.3 225 450 228C468.7 231 487.3 239 506.2 250C525 261 544 275 562.8 280C581.7 285 600.3 281 619 284C637.7 287 656.3 297 675 279C693.7 261 712.3 215 731.2 207C750 199 769 229 787.8 245C806.7 261 825.3 263 844 259C862.7 255 881.3 245 890.7 240L900 235L900 149L890.7 143C881.3 137 862.7 125 844 127C825.3 129 806.7 145 787.8 139C769 133 750 105 731.2 96C712.3 87 693.7 97 675 101C656.3 105 637.7 103 619 114C600.3 125 581.7 149 562.8 150C544 151 525 129 506.2 122C487.3 115 468.7 123 450 135C431.3 147 412.7 163 394 167C375.3 171 356.7 163 337.8 157C319 151 300 147 281.2 144C262.3 141 243.7 139 225 135C206.3 131 187.7 125 169 123C150.3 121 131.7 123 112.8 127C94 131 75 137 56.2 134C37.3 131 18.7 119 9.3 113L0 107Z" fill="#9064ff"></path><path d="M0 409L9.3 405C18.7 401 37.3 393 56.2 379C75 365 94 345 112.8 335C131.7 325 150.3 325 169 332C187.7 339 206.3 353 225 354C243.7 355 262.3 343 281.2 355C300 367 319 403 337.8 411C356.7 419 375.3 399 394 385C412.7 371 431.3 363 450 353C468.7 343 487.3 331 506.2 333C525 335 544 351 562.8 354C581.7 357 600.3 347 619 347C637.7 347 656.3 357 675 356C693.7 355 712.3 343 731.2 336C750 329 769 327 787.8 322C806.7 317 825.3 309 844 323C862.7 337 881.3 373 890.7 391L900 409L900 233L890.7 238C881.3 243 862.7 253 844 257C825.3 261 806.7 259 787.8 243C769 227 750 197 731.2 205C712.3 213 693.7 259 675 277C656.3 295 637.7 285 619 282C600.3 279 581.7 283 562.8 278C544 273 525 259 506.2 248C487.3 237 468.7 229 450 226C431.3 223 412.7 225 394 229C375.3 233 356.7 239 337.8 240C319 241 300 237 281.2 226C262.3 215 243.7 197 225 204C206.3 211 187.7 243 169 250C150.3 257 131.7 239 112.8 243C94 247 75 273 56.2 272C37.3 271 18.7 243 9.3 229L0 215Z" fill="#8859ff"></path><path d="M0 427L9.3 428C18.7 429 37.3 431 56.2 416C75 401 94 369 112.8 356C131.7 343 150.3 349 169 365C187.7 381 206.3 407 225 411C243.7 415 262.3 397 281.2 406C300 415 319 451 337.8 458C356.7 465 375.3 443 394 430C412.7 417 431.3 413 450 403C468.7 393 487.3 377 506.2 372C525 367 544 373 562.8 377C581.7 381 600.3 383 619 387C637.7 391 656.3 397 675 393C693.7 389 712.3 375 731.2 373C750 371 769 381 787.8 382C806.7 383 825.3 375 844 382C862.7 389 881.3 411 890.7 422L900 433L900 407L890.7 389C881.3 371 862.7 335 844 321C825.3 307 806.7 315 787.8 320C769 325 750 327 731.2 334C712.3 341 693.7 353 675 354C656.3 355 637.7 345 619 345C600.3 345 581.7 355 562.8 352C544 349 525 333 506.2 331C487.3 329 468.7 341 450 351C431.3 361 412.7 369 394 383C375.3 397 356.7 417 337.8 409C319 401 300 365 281.2 353C262.3 341 243.7 353 225 352C206.3 351 187.7 337 169 330C150.3 323 131.7 323 112.8 333C94 343 75 363 56.2 377C37.3 391 18.7 399 9.3 403L0 407Z" fill="#8052f3"></path><path d="M0 463L9.3 468C18.7 473 37.3 483 56.2 470C75 457 94 421 112.8 406C131.7 391 150.3 397 169 409C187.7 421 206.3 439 225 442C243.7 445 262.3 433 281.2 440C300 447 319 473 337.8 476C356.7 479 375.3 459 394 450C412.7 441 431.3 443 450 437C468.7 431 487.3 417 506.2 416C525 415 544 427 562.8 431C581.7 435 600.3 431 619 428C637.7 425 656.3 423 675 416C693.7 409 712.3 397 731.2 403C750 409 769 433 787.8 433C806.7 433 825.3 409 844 412C862.7 415 881.3 445 890.7 460L900 475L900 431L890.7 420C881.3 409 862.7 387 844 380C825.3 373 806.7 381 787.8 380C769 379 750 369 731.2 371C712.3 373 693.7 387 675 391C656.3 395 637.7 389 619 385C600.3 381 581.7 379 562.8 375C544 371 525 365 506.2 370C487.3 375 468.7 391 450 401C431.3 411 412.7 415 394 428C375.3 441 356.7 463 337.8 456C319 449 300 413 281.2 404C262.3 395 243.7 413 225 409C206.3 405 187.7 379 169 363C150.3 347 131.7 341 112.8 354C94 367 75 399 56.2 414C37.3 429 18.7 427 9.3 426L0 425Z" fill="#794ce7"></path><path d="M0 511L9.3 509C18.7 507 37.3 503 56.2 491C75 479 94 459 112.8 448C131.7 437 150.3 435 169 442C187.7 449 206.3 465 225 464C243.7 463 262.3 445 281.2 449C300 453 319 479 337.8 489C356.7 499 375.3 493 394 486C412.7 479 431.3 471 450 459C468.7 447 487.3 431 506.2 429C525 427 544 439 562.8 446C581.7 453 600.3 455 619 451C637.7 447 656.3 437 675 428C693.7 419 712.3 411 731.2 417C750 423 769 443 787.8 448C806.7 453 825.3 443 844 451C862.7 459 881.3 485 890.7 498L900 511L900 473L890.7 458C881.3 443 862.7 413 844 410C825.3 407 806.7 431 787.8 431C769 431 750 407 731.2 401C712.3 395 693.7 407 675 414C656.3 421 637.7 423 619 426C600.3 429 581.7 433 562.8 429C544 425 525 413 506.2 414C487.3 415 468.7 429 450 435C431.3 441 412.7 439 394 448C375.3 457 356.7 477 337.8 474C319 471 300 445 281.2 438C262.3 431 243.7 443 225 440C206.3 437 187.7 419 169 407C150.3 395 131.7 389 112.8 404C94 419 75 455 56.2 468C37.3 481 18.7 471 9.3 466L0 461Z" fill="#7146db"></path><path d="M0 523L9.3 522C18.7 521 37.3 519 56.2 514C75 509 94 501 112.8 492C131.7 483 150.3 473 169 484C187.7 495 206.3 527 225 533C243.7 539 262.3 519 281.2 521C300 523 319 547 337.8 547C356.7 547 375.3 523 394 516C412.7 509 431.3 519 450 515C468.7 511 487.3 493 506.2 492C525 491 544 507 562.8 512C581.7 517 600.3 511 619 497C637.7 483 656.3 461 675 452C693.7 443 712.3 447 731.2 457C750 467 769 483 787.8 490C806.7 497 825.3 495 844 506C862.7 517 881.3 541 890.7 553L900 565L900 509L890.7 496C881.3 483 862.7 457 844 449C825.3 441 806.7 451 787.8 446C769 441 750 421 731.2 415C712.3 409 693.7 417 675 426C656.3 435 637.7 445 619 449C600.3 453 581.7 451 562.8 444C544 437 525 425 506.2 427C487.3 429 468.7 445 450 457C431.3 469 412.7 477 394 484C375.3 491 356.7 497 337.8 487C319 477 300 451 281.2 447C262.3 443 243.7 461 225 462C206.3 463 187.7 447 169 440C150.3 433 131.7 435 112.8 446C94 457 75 477 56.2 489C37.3 501 18.7 505 9.3 507L0 509Z" fill="#6a3fcf"></path><path d="M0 601L9.3 601C18.7 601 37.3 601 56.2 601C75 601 94 601 112.8 601C131.7 601 150.3 601 169 601C187.7 601 206.3 601 225 601C243.7 601 262.3 601 281.2 601C300 601 319 601 337.8 601C356.7 601 375.3 601 394 601C412.7 601 431.3 601 450 601C468.7 601 487.3 601 506.2 601C525 601 544 601 562.8 601C581.7 601 600.3 601 619 601C637.7 601 656.3 601 675 601C693.7 601 712.3 601 731.2 601C750 601 769 601 787.8 601C806.7 601 825.3 601 844 601C862.7 601 881.3 601 890.7 601L900 601L900 563L890.7 551C881.3 539 862.7 515 844 504C825.3 493 806.7 495 787.8 488C769 481 750 465 731.2 455C712.3 445 693.7 441 675 450C656.3 459 637.7 481 619 495C600.3 509 581.7 515 562.8 510C544 505 525 489 506.2 490C487.3 491 468.7 509 450 513C431.3 517 412.7 507 394 514C375.3 521 356.7 545 337.8 545C319 545 300 521 281.2 519C262.3 517 243.7 537 225 531C206.3 525 187.7 493 169 482C150.3 471 131.7 481 112.8 490C94 499 75 507 56.2 512C37.3 517 18.7 519 9.3 520L0 521Z" fill="#6239c3"></path></svg>